<mxfile host="65bd71144e">
    <diagram id="WcMbBZNAD1LCr1CeP608" name="Page-1">
        <mxGraphModel dx="2023" dy="1422" grid="1" gridSize="10" guides="1" tooltips="1" connect="1" arrows="1" fold="1" page="1" pageScale="1" pageWidth="850" pageHeight="1100" math="0" shadow="0">
            <root>
                <mxCell id="0"/>
                <mxCell id="1" parent="0"/>
                <mxCell id="6" style="edgeStyle=none;html=1;exitX=0.5;exitY=1;exitDx=0;exitDy=0;exitPerimeter=0;entryX=0.5;entryY=0;entryDx=0;entryDy=0;fontSize=24;strokeWidth=3;" edge="1" parent="1" source="2" target="3">
                    <mxGeometry relative="1" as="geometry"/>
                </mxCell>
                <mxCell id="2" value="&lt;font style=&quot;font-size: 24px;&quot;&gt;Start&lt;/font&gt;" style="strokeWidth=2;html=1;shape=mxgraph.flowchart.start_1;whiteSpace=wrap;" vertex="1" parent="1">
                    <mxGeometry x="355" y="20" width="200" height="80" as="geometry"/>
                </mxCell>
                <mxCell id="8" style="edgeStyle=none;html=1;exitX=0.5;exitY=1;exitDx=0;exitDy=0;entryX=0.5;entryY=0;entryDx=0;entryDy=0;strokeWidth=3;fontSize=24;" edge="1" parent="1" source="3" target="7">
                    <mxGeometry relative="1" as="geometry"/>
                </mxCell>
                <mxCell id="3" value="Import Data from HOBO CSV" style="rounded=0;whiteSpace=wrap;html=1;fontSize=24;strokeWidth=2;" vertex="1" parent="1">
                    <mxGeometry x="355" y="140" width="200" height="80" as="geometry"/>
                </mxCell>
                <mxCell id="5" style="edgeStyle=none;html=1;exitX=1;exitY=0.5;exitDx=0;exitDy=0;entryX=0;entryY=0.5;entryDx=0;entryDy=0;fontSize=24;strokeWidth=3;" edge="1" parent="1" source="4" target="3">
                    <mxGeometry relative="1" as="geometry"/>
                </mxCell>
                <mxCell id="4" value="Filename" style="shape=manualInput;whiteSpace=wrap;html=1;fontSize=24;strokeWidth=2;" vertex="1" parent="1">
                    <mxGeometry x="75" y="140" width="160" height="80" as="geometry"/>
                </mxCell>
                <mxCell id="17" style="edgeStyle=none;html=1;exitX=0.5;exitY=1;exitDx=0;exitDy=0;entryX=0.5;entryY=0;entryDx=0;entryDy=0;strokeWidth=3;fontSize=24;" edge="1" parent="1" source="7" target="10">
                    <mxGeometry relative="1" as="geometry"/>
                </mxCell>
                <mxCell id="25" style="edgeStyle=orthogonalEdgeStyle;html=1;exitX=1;exitY=0.5;exitDx=0;exitDy=0;entryX=0.5;entryY=0;entryDx=0;entryDy=0;strokeWidth=3;fontSize=24;rounded=0;" edge="1" parent="1" source="7" target="9">
                    <mxGeometry relative="1" as="geometry"/>
                </mxCell>
                <mxCell id="26" value="Yes" style="edgeLabel;html=1;align=center;verticalAlign=middle;resizable=0;points=[];fontSize=24;" vertex="1" connectable="0" parent="25">
                    <mxGeometry x="-0.7067" relative="1" as="geometry">
                        <mxPoint x="4" y="-30" as="offset"/>
                    </mxGeometry>
                </mxCell>
                <mxCell id="7" value="Is Data in Imperial?" style="rhombus;whiteSpace=wrap;html=1;strokeWidth=2;fontSize=24;" vertex="1" parent="1">
                    <mxGeometry x="375" y="260" width="160" height="160" as="geometry"/>
                </mxCell>
                <mxCell id="24" style="edgeStyle=orthogonalEdgeStyle;html=1;exitX=0.5;exitY=1;exitDx=0;exitDy=0;entryX=1;entryY=0.5;entryDx=0;entryDy=0;strokeWidth=3;fontSize=24;rounded=0;" edge="1" parent="1" source="9" target="10">
                    <mxGeometry relative="1" as="geometry"/>
                </mxCell>
                <mxCell id="9" value="Convert to Metric" style="rounded=0;whiteSpace=wrap;html=1;fontSize=24;strokeWidth=2;" vertex="1" parent="1">
                    <mxGeometry x="575" y="380" width="200" height="80" as="geometry"/>
                </mxCell>
                <mxCell id="18" style="edgeStyle=none;html=1;exitX=0.5;exitY=1;exitDx=0;exitDy=0;entryX=0.5;entryY=0;entryDx=0;entryDy=0;strokeWidth=3;fontSize=24;" edge="1" parent="1" source="10" target="12">
                    <mxGeometry relative="1" as="geometry"/>
                </mxCell>
                <mxCell id="10" value="Find Start of Submerged Series" style="rounded=0;whiteSpace=wrap;html=1;fontSize=24;strokeWidth=2;" vertex="1" parent="1">
                    <mxGeometry x="345" y="500" width="220" height="80" as="geometry"/>
                </mxCell>
                <mxCell id="22" style="edgeStyle=none;html=1;exitX=1;exitY=0.5;exitDx=0;exitDy=0;entryX=0;entryY=0.5;entryDx=0;entryDy=0;strokeWidth=3;fontSize=24;" edge="1" parent="1" source="11" target="10">
                    <mxGeometry relative="1" as="geometry"/>
                </mxCell>
                <mxCell id="11" value="Threshold" style="shape=manualInput;whiteSpace=wrap;html=1;fontSize=24;strokeWidth=2;" vertex="1" parent="1">
                    <mxGeometry x="75" y="500" width="160" height="80" as="geometry"/>
                </mxCell>
                <mxCell id="19" style="edgeStyle=none;html=1;exitX=0.5;exitY=1;exitDx=0;exitDy=0;entryX=0.5;entryY=0;entryDx=0;entryDy=0;strokeWidth=3;fontSize=24;" edge="1" parent="1" source="12" target="14">
                    <mxGeometry relative="1" as="geometry"/>
                </mxCell>
                <mxCell id="12" value="Find Atmospheric Pressure Before Submerge" style="rounded=0;whiteSpace=wrap;html=1;fontSize=24;strokeWidth=2;" vertex="1" parent="1">
                    <mxGeometry x="305" y="620" width="300" height="80" as="geometry"/>
                </mxCell>
                <mxCell id="23" style="edgeStyle=none;html=1;exitX=1;exitY=0.5;exitDx=0;exitDy=0;entryX=0;entryY=0.5;entryDx=0;entryDy=0;strokeWidth=3;fontSize=24;" edge="1" parent="1" source="13" target="12">
                    <mxGeometry relative="1" as="geometry"/>
                </mxCell>
                <mxCell id="13" value="Margin" style="shape=manualInput;whiteSpace=wrap;html=1;fontSize=24;strokeWidth=2;" vertex="1" parent="1">
                    <mxGeometry x="75" y="620" width="160" height="80" as="geometry"/>
                </mxCell>
                <mxCell id="20" style="edgeStyle=none;html=1;exitX=0.5;exitY=1;exitDx=0;exitDy=0;entryX=0.5;entryY=0;entryDx=0;entryDy=0;strokeWidth=3;fontSize=24;" edge="1" parent="1" source="14" target="15">
                    <mxGeometry relative="1" as="geometry"/>
                </mxCell>
                <mxCell id="14" value="Convert Pressure Data to Gauage Pressure" style="rounded=0;whiteSpace=wrap;html=1;fontSize=24;strokeWidth=2;" vertex="1" parent="1">
                    <mxGeometry x="305" y="740" width="300" height="80" as="geometry"/>
                </mxCell>
                <mxCell id="21" style="edgeStyle=none;html=1;exitX=0.5;exitY=1;exitDx=0;exitDy=0;entryX=0.5;entryY=0;entryDx=0;entryDy=0;strokeWidth=3;fontSize=24;" edge="1" parent="1" source="15" target="16">
                    <mxGeometry relative="1" as="geometry"/>
                </mxCell>
                <mxCell id="15" value="Convert Pressure Data to Surface Elevation" style="rounded=0;whiteSpace=wrap;html=1;fontSize=24;strokeWidth=2;" vertex="1" parent="1">
                    <mxGeometry x="305" y="860" width="300" height="80" as="geometry"/>
                </mxCell>
                <mxCell id="16" value="Return table of times, pressure, and surface" style="shape=parallelogram;perimeter=parallelogramPerimeter;whiteSpace=wrap;html=1;dashed=0;strokeWidth=2;fontSize=24;size=0.08035714285714285;" vertex="1" parent="1">
                    <mxGeometry x="315" y="980" width="280" height="100" as="geometry"/>
                </mxCell>
                <mxCell id="27" value="No" style="edgeLabel;html=1;align=center;verticalAlign=middle;resizable=0;points=[];fontSize=24;" vertex="1" connectable="0" parent="1">
                    <mxGeometry x="425" y="430" as="geometry">
                        <mxPoint x="-4" y="4" as="offset"/>
                    </mxGeometry>
                </mxCell>
            </root>
        </mxGraphModel>
    </diagram>
</mxfile>